<svg width="32" height="39" viewBox="0 0 32 39" fill="none" xmlns="http://www.w3.org/2000/svg">
<path d="M21.113 7.7857C20.6009 7.20221 20.0532 6.85093 19.4578 6.87474C18.0229 6.98191 16.9214 6.48178 16.2486 5.63631C15.3793 6.03523 14.5695 5.89829 14.0099 5.4577C12.3368 6.19599 12.1344 5.35648 12.4797 4.74322L14.8613 3.24281L17.3977 3.44525L22.3693 6.1424L21.113 7.7857Z" fill="#C29870"/>
<path d="M31.7288 31.739C25.6617 35.9127 13.849 37.1333 9.59782 31.4175C9.35966 31.2448 9.07982 31.2805 8.78212 31.4175C8.27604 31.7033 7.60919 32.1081 7.52584 32.8464C7.46034 34.5671 7.07333 36.3176 6.44816 38.0978H0V20.1644C2.846 16.7647 9.80026 17.9912 12.9499 20.8789C16.4628 20.4383 19.2492 20.8134 21.4641 23.2843C22.7502 24.5823 24.0184 24.1477 24.1494 23.1652C23.7743 22.3436 23.679 21.4386 23.7683 20.4681C23.8159 19.9382 23.7385 19.4023 23.4825 18.9379C22.8693 17.8305 22.6668 15.693 22.8752 12.5017C22.899 10.9179 22.0595 9.26865 21.0592 7.71466C20.7496 6.83943 20.3507 6.30952 19.8149 6.35716C18.7491 6.58341 17.85 5.98801 17.0582 4.86866C16.7783 4.45784 16.3139 3.97556 15.7781 4.66027C15.3494 5.45215 14.0157 5.41643 14.0812 4.59478C13.5513 5.19613 13.2238 5.44024 12.7892 5.41643C12.426 5.39856 12.1699 4.98179 12.9201 3.89221H12.8963C12.1283 3.8803 11.7829 3.18964 12.1342 2.64187C12.6998 1.95716 14.099 1.03429 15.2243 0.278139C15.7721 -0.061238 16.3496 -0.0790999 16.945 0.165013C19.541 1.01048 22.1548 2.08815 24.1494 3.99342C25.0722 4.69599 25.751 6.10113 26.2511 7.36933C26.4774 7.95878 26.5488 8.447 26.8227 8.94118C30.3594 16.3301 32.1515 26.0053 31.7288 31.739Z" fill="#EAC18B"/>
<path d="M30.5856 32.4536C24.2804 36.0319 13.5989 36.7941 9.59784 31.4176C9.35968 31.2449 9.07984 31.2807 8.78214 31.4176C8.27605 31.7034 7.60921 32.1083 7.52585 32.8466C6.34696 32.4298 5.77538 31.6855 6.06117 30.4173C5.01923 30.4531 4.48337 31.0187 4.3107 31.9475C4.19162 32.8763 3.78675 33.5789 3.21517 34.1564C4.03682 31.9535 3.41165 31.4176 1.75049 32.0547C4.03682 29.2801 5.77538 28.2799 6.26956 26.0471C6.31719 25.4517 6.48391 24.9456 6.82328 24.5586C7.03763 24.249 7.19243 23.9275 7.26388 23.5941C7.56158 22.4747 8.46063 21.7781 9.41922 21.1172C8.28201 22.3914 7.65684 23.5524 7.43654 24.5884C6.85305 27.4165 7.2222 29.816 9.84195 29.3397C11.6043 29.2325 12.6999 31.0901 14.498 31.8225C15.2065 32.1142 15.8436 32.537 16.4449 33.0133C17.5047 33.8528 19.1838 33.7099 21.5177 32.5191C22.2441 31.9654 23.2265 31.7213 24.7567 32.138C25.9356 32.8704 27.9897 32.8763 30.5856 32.4536ZM14.8195 1.19519C14.8373 1.48098 14.7659 1.77868 14.623 2.0347C14.4801 2.29072 14.2777 2.51102 14.0693 2.70155L13.4322 3.26122C13.2298 3.4458 13.0452 3.63632 12.9202 3.89234H12.8963C12.9737 3.61846 13.1524 3.3803 13.3488 3.17191C13.5453 2.95757 13.7597 2.77895 13.9681 2.58842C14.1705 2.39789 14.367 2.20141 14.5158 1.96921C14.6647 1.74296 14.754 1.47503 14.7957 1.19519H14.8195ZM15.9626 1.9573C15.9805 2.24309 15.9091 2.53484 15.7721 2.79681C15.6292 3.05283 15.4327 3.27313 15.2184 3.46366L14.5813 4.02333C14.3789 4.21386 14.1943 4.42225 14.0693 4.67827L14.0455 4.67232C14.1229 4.39248 14.3015 4.14837 14.498 3.93998C14.6944 3.72563 14.9147 3.54701 15.1172 3.35649C15.3196 3.16596 15.5161 2.96948 15.6649 2.73727C15.8138 2.51102 15.9031 2.24309 15.9448 1.96325L15.9626 1.9573ZM20.0233 6.57164C20.0947 6.32157 20.2555 6.10723 20.4222 5.9167C20.5889 5.72022 20.7675 5.5416 20.9283 5.34512C21.089 5.15459 21.226 4.94025 21.2974 4.70209C21.3689 4.46393 21.3689 4.20791 21.3093 3.96379L21.3391 3.95784C21.4165 4.20195 21.4403 4.46988 21.3689 4.7259C21.2974 4.97597 21.1545 5.20222 20.9938 5.3987C20.8271 5.59518 20.6484 5.7738 20.4758 5.95838C20.3091 6.14295 20.1423 6.33943 20.053 6.57759L20.0233 6.57164ZM18.6241 6.76216C18.7193 6.524 18.892 6.32752 19.0706 6.1489C19.2492 5.97028 19.4457 5.80953 19.6184 5.62495C19.7911 5.44038 19.9518 5.2439 20.0411 5.01169C20.1364 4.77949 20.1543 4.52347 20.1185 4.2734H20.1245C20.184 4.52347 20.1781 4.7914 20.0888 5.03551C19.9994 5.27962 19.8387 5.48801 19.6541 5.67259C19.4755 5.85716 19.279 6.01792 19.0944 6.19058C18.9218 6.35134 18.7372 6.53591 18.6241 6.76216Z" fill="#C29870"/>
</svg>
