<svg width="32" height="39" viewBox="0 0 32 39" fill="none" xmlns="http://www.w3.org/2000/svg">
<path d="M10.6771 7.78602C11.1891 7.20253 11.7369 6.85125 12.3323 6.87506C13.7672 6.98224 14.8687 6.4821 15.5415 5.63663C16.4107 6.03555 17.2205 5.89861 17.7802 5.45802C19.4532 6.19631 19.6557 5.3568 19.3103 4.74354L16.9287 3.24313L14.3923 3.44557L9.42077 6.14272L10.6771 7.78602Z" fill="#C29870"/>
<path d="M0.061018 31.739C6.12813 35.9127 17.9408 37.1333 22.192 31.4175C22.4301 31.2448 22.71 31.2805 23.0077 31.4175C23.5138 31.7033 24.1806 32.1081 24.264 32.8464C24.3295 34.5671 24.7165 36.3176 25.3416 38.0978H31.7898V20.1644C28.9438 16.7647 21.9895 17.9912 18.8399 20.8789C15.327 20.4383 12.5406 20.8134 10.3257 23.2843C9.03963 24.5823 7.77143 24.1477 7.64044 23.1652C8.01554 22.3436 8.1108 21.4386 8.02149 20.4681C7.97386 19.9382 8.05126 19.4023 8.30728 18.9379C8.92054 17.8305 9.12298 15.693 8.91459 12.5017C8.89078 10.9179 9.73029 9.26865 10.7306 7.71466C11.0402 6.83943 11.4391 6.30952 11.9749 6.35716C13.0407 6.58341 13.9398 5.98801 14.7316 4.86866C15.0115 4.45784 15.4759 3.97556 16.0117 4.66027C16.4404 5.45215 17.7741 5.41643 17.7086 4.59478C18.2385 5.19613 18.566 5.44024 19.0006 5.41643C19.3638 5.39856 19.6199 4.98179 18.8697 3.89221H18.8935C19.6615 3.8803 20.0069 3.18964 19.6556 2.64187C19.0899 1.95716 17.6908 1.03429 16.5655 0.278139C16.0177 -0.061238 15.4402 -0.0790999 14.8448 0.165013C12.2488 1.01048 9.63502 2.08815 7.64044 3.99342C6.71757 4.69599 6.03882 6.10113 5.53868 7.36933C5.31243 7.95878 5.24098 8.447 4.9671 8.94118C1.43044 16.3301 -0.361713 26.0053 0.061018 31.739Z" fill="#EAC18B"/>
<path d="M1.20417 32.4535C7.50943 36.0318 18.1909 36.7939 22.192 31.4175C22.4301 31.2448 22.71 31.2805 23.0077 31.4175C23.5137 31.7033 24.1806 32.1081 24.2639 32.8464C25.4428 32.4297 26.0144 31.6854 25.7286 30.4172C26.7706 30.4529 27.3064 31.0186 27.4791 31.9474C27.5982 32.8762 28.003 33.5788 28.5746 34.1563C27.753 31.9533 28.3781 31.4175 30.0393 32.0546C27.753 29.28 26.0144 28.2797 25.5202 26.047C25.4726 25.4516 25.3059 24.9455 24.9665 24.5585C24.7522 24.2489 24.5974 23.9274 24.5259 23.594C24.2282 22.4746 23.3292 21.778 22.3706 21.1171C23.5078 22.3912 24.133 23.5523 24.3533 24.5883C24.9367 27.4164 24.5676 29.8159 21.9478 29.3395C20.1855 29.2324 19.0899 31.09 17.2918 31.8224C16.5833 32.1141 15.9462 32.5368 15.3449 33.0132C14.2851 33.8527 12.606 33.7098 10.2721 32.519C9.5457 31.9653 8.56329 31.7211 7.03312 32.1379C5.85423 32.8703 3.8001 32.8762 1.20417 32.4535ZM16.9703 1.19507C16.9525 1.48086 17.0239 1.77856 17.1668 2.03458C17.3097 2.2906 17.5121 2.5109 17.7205 2.70143L18.3576 3.2611C18.56 3.44567 18.7446 3.6362 18.8696 3.89222H18.8935C18.816 3.61834 18.6374 3.38018 18.4409 3.17179C18.2445 2.95745 18.0301 2.77883 17.8217 2.5883C17.6193 2.39777 17.4228 2.20129 17.274 1.96909C17.1251 1.74283 17.0358 1.47491 16.9941 1.19507H16.9703ZM15.8271 1.95718C15.8093 2.24297 15.8807 2.53471 16.0177 2.79669C16.1606 3.05271 16.3571 3.27301 16.5714 3.46354L17.2085 4.02321C17.4109 4.21374 17.5955 4.42213 17.7205 4.67815L17.7443 4.67219C17.6669 4.39236 17.4883 4.14824 17.2918 3.93985C17.0953 3.72551 16.875 3.54689 16.6726 3.35636C16.4702 3.16584 16.2737 2.96936 16.1248 2.73715C15.976 2.5109 15.8867 2.24297 15.845 1.96313L15.8271 1.95718ZM11.7665 6.57152C11.6951 6.32145 11.5343 6.1071 11.3676 5.91658C11.2009 5.7201 11.0223 5.54148 10.8615 5.34499C10.7008 5.15447 10.5638 4.94012 10.4924 4.70196C10.4209 4.4638 10.4209 4.20778 10.4805 3.96367L10.4507 3.95772C10.3733 4.20183 10.3495 4.46976 10.4209 4.72578C10.4924 4.97585 10.6353 5.2021 10.796 5.39858C10.9627 5.59506 11.1414 5.77368 11.314 5.95825C11.4807 6.14283 11.6475 6.33931 11.7368 6.57747L11.7665 6.57152ZM13.1657 6.76204C13.0705 6.52388 12.8978 6.3274 12.7192 6.14878C12.5405 5.97016 12.3441 5.80941 12.1714 5.62483C11.9987 5.44026 11.838 5.24378 11.7487 5.01157C11.6534 4.77937 11.6355 4.52334 11.6713 4.27328H11.6653C11.6058 4.52334 11.6117 4.79127 11.701 5.03539C11.7903 5.2795 11.9511 5.48789 12.1357 5.67246C12.3143 5.85704 12.5108 6.01779 12.6954 6.19046C12.868 6.35122 13.0526 6.53579 13.1657 6.76204Z" fill="#C29870"/>
</svg>
