<svg width="19" height="15" viewBox="0 0 19 15" fill="none" xmlns="http://www.w3.org/2000/svg">
<path d="M7.92 -2.74181e-06L3.168 11.22L2.904 9.174C3.652 9.174 4.29 9.438 4.818 9.966C5.346 10.494 5.61 11.132 5.61 11.88C5.61 12.716 5.324 13.42 4.752 13.992C4.18 14.52 3.498 14.784 2.706 14.784C1.958 14.784 1.32 14.52 0.792 13.992C0.264 13.464 2.83122e-07 12.826 2.83122e-07 12.078C2.83122e-07 11.594 0.0880003 11.154 0.264 10.758C0.44 10.318 0.682 9.812 0.99 9.24L5.61 -2.74181e-06H7.92ZM18.018 -2.74181e-06L13.266 11.22L13.002 9.174C13.75 9.174 14.388 9.438 14.916 9.966C15.444 10.494 15.708 11.132 15.708 11.88C15.708 12.716 15.422 13.42 14.85 13.992C14.278 14.52 13.596 14.784 12.804 14.784C12.056 14.784 11.418 14.52 10.89 13.992C10.362 13.464 10.098 12.826 10.098 12.078C10.098 11.594 10.186 11.154 10.362 10.758C10.538 10.318 10.78 9.812 11.088 9.24L15.708 -2.74181e-06H18.018Z" fill="#F5DF7A"/>
</svg>
