<svg width="17" height="14" viewBox="0 0 17 14" fill="none" xmlns="http://www.w3.org/2000/svg">
<path d="M-5.69224e-06 13.44L4.37999 3.30001L4.61999 5.10001C3.93999 5.10001 3.35999 4.86001 2.87999 4.38001C2.39999 3.90001 2.15999 3.32001 2.15999 2.64001C2.15999 1.88001 2.41999 1.26001 2.93999 0.780007C3.49999 0.260007 4.11999 6.67572e-06 4.79999 6.67572e-06C5.47999 6.67572e-06 6.03999 0.240007 6.47999 0.720008C6.95999 1.16001 7.19999 1.74001 7.19999 2.46001C7.19999 2.90001 7.11999 3.32001 6.95999 3.72001C6.83999 4.08001 6.63999 4.52001 6.35999 5.04001L2.15999 13.44H-5.69224e-06ZM9.17999 13.44L13.56 3.30001L13.8 5.10001C13.12 5.10001 12.54 4.86001 12.06 4.38001C11.58 3.90001 11.34 3.32001 11.34 2.64001C11.34 1.88001 11.6 1.26001 12.12 0.780007C12.68 0.260007 13.3 6.67572e-06 13.98 6.67572e-06C14.66 6.67572e-06 15.22 0.240007 15.66 0.720008C16.14 1.16001 16.38 1.74001 16.38 2.46001C16.38 2.90001 16.3 3.32001 16.14 3.72001C16.02 4.08001 15.82 4.52001 15.54 5.04001L11.34 13.44H9.17999Z" fill="#F5DF7A"/>
</svg>
