<svg width="23" height="28" viewBox="0 0 23 28" fill="none" xmlns="http://www.w3.org/2000/svg">
<path fill-rule="evenodd" clip-rule="evenodd" d="M12.9934 0.46066C13.796 -0.501945 15.3593 0.155878 15.2323 1.40295L14.3357 10.1629H21.5883C21.8296 10.163 22.0659 10.2318 22.2695 10.3614C22.4731 10.4909 22.6356 10.6757 22.7379 10.8943C22.8402 11.1128 22.8782 11.356 22.8473 11.5953C22.8165 11.8346 22.718 12.0602 22.5636 12.2456L9.86432 27.4847C9.06173 28.4473 7.49845 27.7895 7.62544 26.5424L8.52201 17.7825H1.26945C1.02815 17.7824 0.791864 17.7135 0.588269 17.584C0.384673 17.4545 0.222195 17.2696 0.119859 17.0511C0.0175233 16.8326 -0.0204336 16.5894 0.0104334 16.3501C0.0413003 16.1108 0.139713 15.8852 0.294148 15.6998L12.9934 0.46066Z" fill="#F5DF7A"/>
</svg>
