<svg width="48" height="44" viewBox="0 0 48 44" fill="none" xmlns="http://www.w3.org/2000/svg">
<path d="M24.3921 23.9203C25.3325 24.0159 26.2037 24.454 26.8371 25.1499C27.4706 25.8458 27.8213 26.75 27.8214 27.6875C27.8214 29.6343 26.6248 31.2452 25.0158 32.3083C23.3992 33.3789 21.2351 34 18.9107 34C16.5863 34 14.4223 33.3789 12.8056 32.3083C11.194 31.2478 10 29.6343 10 27.6875C10 26.683 10.4023 25.7197 11.1185 25.0094C11.8347 24.2991 12.806 23.9001 13.8189 23.9001H24.0025L24.3921 23.9203ZM34.1811 23.9001C35.194 23.9001 36.1653 24.2991 36.8815 25.0094C37.5977 25.7197 38 26.683 38 27.6875C38 29.4424 36.9027 30.7453 35.4974 31.5457C34.1022 32.3411 32.2768 32.7375 30.3622 32.7375C29.719 32.7358 29.091 32.6895 28.4783 32.5986C29.074 31.9017 29.573 31.1013 29.9065 30.1999C30.0576 30.2083 30.2095 30.2125 30.3622 30.2125C31.9636 30.2125 33.3206 29.8767 34.2295 29.3591C35.1282 28.8465 35.4541 28.2557 35.4541 27.6875C35.4541 27.3527 35.32 27.0316 35.0812 26.7948C34.8425 26.5581 34.5187 26.425 34.1811 26.425H30.235C30.0431 25.5088 29.6483 24.6463 29.0791 23.9001H34.1811ZM13.8189 26.425C13.4813 26.425 13.1575 26.5581 12.9188 26.7948C12.68 27.0316 12.5459 27.3527 12.5459 27.6875C12.5459 28.5284 13.0627 29.4449 14.216 30.2075C15.3617 30.965 17.0165 31.475 18.9107 31.475C20.8023 31.475 22.4597 30.965 23.6054 30.2075C24.7587 29.4449 25.2755 28.5284 25.2755 27.6875C25.2756 27.3965 25.1742 27.1144 24.9887 26.8889C24.8031 26.6634 24.5447 26.5085 24.2571 26.4503L24.0025 26.425H13.8189ZM19.4988 10.0353C20.9108 10.1791 22.2188 10.8368 23.1701 11.8815C24.1214 12.9262 24.6484 14.2836 24.6492 15.6913L24.6187 16.2721C24.4726 17.6715 23.8088 18.9676 22.7556 19.91C21.7024 20.8525 20.3344 21.3744 18.9158 21.3751L18.3302 21.3448C17.0187 21.212 15.7934 20.6347 14.8611 19.7101C13.9289 18.7855 13.3468 17.5703 13.2129 16.2695L13.1824 15.6888C13.1824 14.1805 13.7864 12.7339 14.8615 11.6671C15.9367 10.6003 17.395 10.0007 18.9158 10L19.4988 10.0353ZM31.0038 12.53C31.5889 12.53 32.1683 12.6443 32.7088 12.8664C33.2494 13.0885 33.7405 13.4139 34.1542 13.8243C34.568 14.2346 34.8961 14.7217 35.12 15.2578C35.3439 15.7939 35.4592 16.3685 35.4592 16.9488C35.4592 17.529 35.3439 18.1036 35.12 18.6397C34.8961 19.1758 34.568 19.663 34.1542 20.0733C33.7405 20.4836 33.2494 20.8091 32.7088 21.0311C32.1683 21.2532 31.5889 21.3675 31.0038 21.3675C29.8222 21.3675 28.6889 20.9019 27.8534 20.0733C27.0179 19.2446 26.5485 18.1207 26.5485 16.9488C26.5485 15.7768 27.0179 14.6529 27.8534 13.8243C28.6889 12.9956 29.8222 12.53 31.0038 12.53ZM18.9158 12.53C18.4972 12.53 18.0827 12.6118 17.696 12.7707C17.3093 12.9295 16.9579 13.1624 16.6619 13.456C16.3659 13.7495 16.1311 14.098 15.9709 14.4815C15.8108 14.8651 15.7283 15.2762 15.7283 15.6913C15.7283 16.1065 15.8108 16.5175 15.9709 16.9011C16.1311 17.2846 16.3659 17.6331 16.6619 17.9267C16.9579 18.2202 17.3093 18.4531 17.696 18.612C18.0827 18.7708 18.4972 18.8526 18.9158 18.8526C19.7612 18.8526 20.5719 18.5195 21.1697 17.9267C21.7675 17.3338 22.1033 16.5297 22.1033 15.6913C22.1033 14.8529 21.7675 14.0488 21.1697 13.456C20.5719 12.8631 19.7612 12.53 18.9158 12.53ZM31.0038 15.055C30.4974 15.055 30.0117 15.2545 29.6536 15.6097C29.2956 15.9648 29.0944 16.4465 29.0944 16.9488C29.0944 17.451 29.2956 17.9327 29.6536 18.2878C30.0117 18.643 30.4974 18.8425 31.0038 18.8425C31.5102 18.8425 31.9959 18.643 32.354 18.2878C32.7121 17.9327 32.9133 17.451 32.9133 16.9488C32.9133 16.4465 32.7121 15.9648 32.354 15.6097C31.9959 15.2545 31.5102 15.055 31.0038 15.055Z" fill="#CE2F7D"/>
</svg>
