<svg width="40" height="40" viewBox="0 0 40 40" fill="none" xmlns="http://www.w3.org/2000/svg">
<path d="M7.76416 15.8637V15.8442C7.76473 13.9983 8.3019 12.1939 9.30792 10.6585C10.3139 9.12308 11.7438 7.92546 13.4171 7.21663C15.0905 6.50779 16.9324 6.31948 18.7107 6.67544C20.489 7.0314 22.124 7.91569 23.4095 9.21681C24.421 8.70777 25.5511 8.49355 26.6747 8.59784C27.7983 8.70212 28.8717 9.12085 29.7762 9.80773C30.6807 10.4946 31.3812 11.4229 31.8001 12.4899C32.219 13.557 32.34 14.7212 32.1499 15.854C32.4287 15.8804 32.6993 15.9651 32.9446 16.1028C33.1899 16.2404 33.4048 16.428 33.5758 16.654C33.7468 16.8799 33.8703 17.1393 33.9385 17.416C34.0068 17.6927 34.0183 17.9807 33.9725 18.2621C33.0506 23.9094 30.7723 27.4849 27.1376 28.9887V30.3843C27.1376 31.2106 26.8153 32.0031 26.2417 32.5874C25.668 33.1717 24.8899 33.5 24.0786 33.5H15.9214C15.1101 33.5 14.3321 33.1717 13.7584 32.5874C13.1847 32.0031 12.8624 31.2106 12.8624 30.3843V28.9887C9.22991 27.4849 6.95162 23.9094 6.02755 18.2621C5.98286 17.988 5.99262 17.7075 6.05626 17.4373C6.1199 17.1671 6.23612 16.9126 6.39805 16.689C6.55998 16.4653 6.76433 16.2771 6.99898 16.1353C7.23363 15.9935 7.49383 15.9012 7.76416 15.8637ZM9.80347 15.8442H11.8428C11.8428 14.467 12.3799 13.1462 13.336 12.1723C14.2921 11.1984 15.5889 10.6513 16.9411 10.6513C18.2932 10.6513 19.59 11.1984 20.5461 12.1723C21.5022 13.1462 22.0393 14.467 22.0393 15.8442H24.0786C24.0786 13.9161 23.3267 12.0669 21.9881 10.7035C20.6495 9.34013 18.8341 8.57419 16.9411 8.57419C15.0481 8.57419 13.2326 9.34013 11.894 10.7035C10.5555 12.0669 9.80347 13.9161 9.80347 15.8442ZM13.8821 15.8442H20C20 15.0179 19.6777 14.2254 19.1041 13.6411C18.5304 13.0568 17.7523 12.7285 16.9411 12.7285C16.1298 12.7285 15.3517 13.0568 14.778 13.6411C14.2044 14.2254 13.8821 15.0179 13.8821 15.8442ZM27.8832 15.8442H30.0691C30.2228 15.2303 30.2369 14.5887 30.1104 13.9684C29.9839 13.3481 29.7201 12.7654 29.3391 12.2646C28.958 11.7638 28.4698 11.3582 27.9116 11.0786C27.3534 10.7991 26.74 10.6529 26.118 10.6513C25.6453 10.6505 25.1762 10.734 24.7319 10.898C25.0949 11.4934 25.392 12.128 25.6177 12.7902C26.0063 12.6915 26.4147 12.7114 26.7923 12.8473C27.1699 12.9832 27.4999 13.2292 27.7413 13.5546C27.9827 13.8801 28.1249 14.2706 28.1501 14.6777C28.1754 15.0848 28.0826 15.4904 27.8832 15.8442ZM25.0983 29.3457H14.9017V30.3843C14.9017 30.6597 15.0092 30.9239 15.2004 31.1187C15.3916 31.3134 15.651 31.4228 15.9214 31.4228H24.0786C24.3491 31.4228 24.6084 31.3134 24.7997 31.1187C24.9909 30.9239 25.0983 30.6597 25.0983 30.3843V29.3457ZM14.1848 27.2685H25.8152C29.0495 26.2105 31.0983 23.2116 31.965 17.9214H8.035C8.90171 23.2116 10.9506 26.2105 14.1848 27.2685Z" fill="#CE2F7D"/>
</svg>
