<svg width="40" height="40" viewBox="0 0 40 40" fill="none" xmlns="http://www.w3.org/2000/svg">
<path d="M29.8067 6.04974H15.6591C14.1582 6.04974 12.7188 6.63765 11.6575 7.68412C10.5962 8.73059 10 10.1499 10 11.6298V28.3702C10 29.8501 10.5962 31.2694 11.6575 32.3159C12.7188 33.3624 14.1582 33.9503 15.6591 33.9503H29.8067C30.5572 33.9503 31.2769 33.6563 31.8075 33.1331C32.3382 32.6098 32.6363 31.9002 32.6363 31.1602V8.8398C32.6363 8.09983 32.3382 7.39017 31.8075 6.86693C31.2769 6.34369 30.5572 6.04974 29.8067 6.04974ZM12.8295 11.6298C12.8295 10.8899 13.1276 10.1802 13.6583 9.65698C14.1889 9.13375 14.9086 8.8398 15.6591 8.8398H29.8067V22.7901H15.6591C14.6617 22.7942 13.684 23.0641 12.8295 23.5713V11.6298ZM15.6591 31.1602C14.9086 31.1602 14.1889 30.8663 13.6583 30.343C13.1276 29.8198 12.8295 29.1101 12.8295 28.3702C12.8295 27.6302 13.1276 26.9205 13.6583 26.3973C14.1889 25.8741 14.9086 25.5801 15.6591 25.5801H29.8067V31.1602H15.6591ZM18.4886 14.4199H24.1477C24.5229 14.4199 24.8827 14.2729 25.1481 14.0113C25.4134 13.7497 25.5624 13.3949 25.5624 13.0249C25.5624 12.6549 25.4134 12.3001 25.1481 12.0384C24.8827 11.7768 24.5229 11.6298 24.1477 11.6298H18.4886C18.1134 11.6298 17.7535 11.7768 17.4882 12.0384C17.2229 12.3001 17.0738 12.6549 17.0738 13.0249C17.0738 13.3949 17.2229 13.7497 17.4882 14.0113C17.7535 14.2729 18.1134 14.4199 18.4886 14.4199Z" fill="#CE2F7D"/>
</svg>
