<svg width="32" height="39" viewBox="0 0 32 39" fill="none" xmlns="http://www.w3.org/2000/svg">
<path d="M11.4998 37.4378H7.62947C7.44981 35.7769 7.1072 34.1377 6.60658 32.5438C4.97929 27.3696 2.02909 23.8121 0 21.7807C3.81869 23.4132 7.19465 25.5092 9.02539 29.3757C9.63092 30.6544 10.0792 31.9994 10.4896 33.3512C10.6011 33.7184 11.4956 37.4378 11.4998 37.4378Z" fill="#5DAE47"/>
<path d="M21.0036 30.2965H16.1726C16.5553 26.7012 16.6522 23.0812 16.4621 19.4705C16.4508 19.2488 16.4376 19.0272 16.4244 18.8074C16.0232 12.386 14.7139 6.05393 12.5356 0C15.881 4.32697 18.3324 9.27604 19.7473 14.5592C20.1922 16.2071 20.5377 17.8802 20.782 19.5695C21.2957 23.1226 21.3702 26.7253 21.0036 30.2965Z" fill="#67BC46"/>
<path d="M17.7141 37.3906H22.5282C22.8595 35.3432 23.284 33.3119 23.8005 31.3032C25.4577 24.8564 28.0517 18.6875 31.4998 12.9938C27.3646 16.5736 23.9827 20.9401 21.551 25.8393L21.5199 25.9015C20.2662 28.427 19.2638 31.0697 18.5271 33.7914C18.2057 34.9792 17.9345 36.18 17.7141 37.3906Z" fill="#5DAE47"/>
<path d="M2.04956 0.272854C6.82244 7.68182 10.3391 15.8281 12.4577 24.3829C13.5155 28.6543 14.2249 33.0045 14.5789 37.3906H19.4278C19.3521 36.1876 19.2382 34.9872 19.0864 33.7914C18.7835 31.3888 18.3277 29.0081 17.7216 26.6636C17.2404 24.8071 16.6643 22.9764 15.9956 21.1789C13.0358 13.2205 8.26067 6.06223 2.04956 0.272854Z" fill="#5DAE47"/>
<path d="M31.8785 0.272854C27.1056 7.68182 23.589 15.8281 21.4704 24.3829C20.4126 28.6543 19.7032 33.0045 19.3492 37.3906H14.5002C14.57 36.2767 14.6794 35.0722 14.8417 33.7914C15.1446 31.3888 15.6004 29.0081 16.2065 26.6636C16.6877 24.8071 17.2638 22.9764 17.9325 21.1789C20.8923 13.2205 25.6674 6.06223 31.8785 0.272854Z" fill="#74BF4B"/>
<path d="M15.6543 37.3906H10.8403C10.509 35.3432 10.0844 33.3119 9.56792 31.3032C7.91076 24.8564 5.31671 18.6875 1.86865 12.9938C6.00386 16.5736 9.38573 20.9401 11.8174 25.8393L11.8486 25.9015C13.1023 28.427 14.1047 31.0697 14.8413 33.7914C15.1627 34.9792 15.434 36.18 15.6543 37.3906Z" fill="#67BC46"/>
<path d="M24.0745 38.098H5.58372C5.50972 38.098 5.43874 38.0311 5.38642 37.9121C5.33409 37.793 5.30469 37.6315 5.30469 37.4631C5.30469 37.2947 5.33409 37.1332 5.38642 37.0141C5.43874 36.895 5.50972 36.8281 5.58372 36.8281H24.0745C24.1485 36.8281 24.2194 36.895 24.2718 37.0141C24.3241 37.1332 24.3535 37.2947 24.3535 37.4631C24.3535 37.6315 24.3241 37.793 24.2718 37.9121C24.2194 38.0311 24.1485 38.098 24.0745 38.098Z" fill="#B28966"/>
</svg>
