<svg width="39" height="39" viewBox="0 0 39 39" fill="none" xmlns="http://www.w3.org/2000/svg">
<mask id="mask0_66_2044" style="mask-type:luminance" maskUnits="userSpaceOnUse" x="0" y="0" width="39" height="39">
<path d="M0 3.8147e-06H38.0978V38.0978H0V3.8147e-06Z" fill="white"/>
</mask>
<g mask="url(#mask0_66_2044)">
<path d="M36.0927 20.0513C36.0927 17.983 35.7247 16.0019 35.05 14.1682C34.5888 19.5711 31.7084 22.3462 28.6987 21.0539C25.8785 19.8428 27.7793 15.1216 27.9197 12.8688C28.1563 9.05004 27.9077 4.67881 20.9708 1.04448C23.8532 6.55864 21.3047 9.98343 18.6308 10.193C15.6652 10.4236 12.9503 7.64443 13.9528 3.13284C10.7065 5.52498 10.6112 9.55132 11.6128 12.156C12.6575 14.871 11.5717 17.1268 9.02317 17.3774C6.17686 17.6581 4.59479 14.3286 6.05354 9.02297C3.43483 12.1003 1.99939 16.0106 2.00514 20.0513C2.00514 29.4645 9.63574 37.0951 19.0489 37.0951C28.4621 37.0951 36.0927 29.4645 36.0927 20.0513Z" fill="#F4900C"/>
</g>
<mask id="mask1_66_2044" style="mask-type:luminance" maskUnits="userSpaceOnUse" x="2" y="1" width="35" height="37">
<path d="M18.6308 10.1932C15.6662 10.4248 12.9503 7.64466 13.9528 3.13307C10.7055 5.52521 10.6122 9.55256 11.6138 12.1562C12.6575 14.8712 11.5717 17.127 9.02317 17.3776C6.17686 17.6584 4.5958 14.3278 6.05354 9.0232C3.43483 12.1005 1.99939 16.0108 2.00514 20.0515C2.00514 29.4647 9.63574 37.0953 19.0489 37.0953C28.4621 37.0953 36.0927 29.4647 36.0927 20.0515C36.0927 17.9832 35.7247 16.0021 35.05 14.1684C34.5888 19.5703 31.7084 22.3464 28.6987 21.0541C25.8795 19.843 27.7793 15.1219 27.9197 12.8691C28.1563 9.05027 27.9077 4.67904 20.9708 1.04471C23.8532 6.55787 21.3047 9.98466 18.6308 10.1932Z" fill="white"/>
</mask>
<g mask="url(#mask1_66_2044)">
<path d="M31.0796 31.08C31.0796 28.8873 30.4941 26.833 29.4705 25.0635C29.6179 28.1554 26.9019 29.3676 25.4401 28.7821C23.3297 27.9369 23.8952 26.4852 23.3518 23.4774C22.8084 20.4697 20.72 18.3803 17.6281 17.462C19.8839 23.8113 16.3779 26.1513 14.5401 26.5694C12.6633 26.9965 10.7775 26.5684 10.5619 22.552C9.43714 23.6689 8.54481 24.9976 7.9365 26.4613C7.32818 27.9251 7.01595 29.4948 7.01783 31.08C7.01783 37.724 12.4047 43.1108 19.0487 43.1108C25.6928 43.1108 31.0796 37.724 31.0796 31.08Z" fill="#FFCC4D"/>
</g>
</svg>
