<svg width="20" height="17" viewBox="0 0 20 17" fill="none" xmlns="http://www.w3.org/2000/svg">
<path d="M1.70103 -7.61649e-06L1.26273 0.152645C0.52317 0.410222 -0.0138796 1.07679 0.000276512 1.8598C0.055258 4.90095 1.31564 7.69626 3.34915 9.74316C4.08414 10.483 4.55499 11.477 4.45806 12.5154L4.17723 15.5239L19.1123 16.918L19.2982 14.9267C19.5454 12.2782 14.363 10.4486 11.7046 10.2005L11.4557 10.1772C7.21359 9.78124 3.87139 6.2372 3.52941 2.27778C3.45799 1.45084 3.04123 0.658778 2.29635 0.292624L1.70103 -7.61649e-06ZM12.634 0.243736C11.5777 0.145138 10.5255 0.470181 9.70892 1.14736C8.8923 1.82454 8.37814 2.79838 8.27954 3.85466C8.18094 4.91093 8.50598 5.96311 9.18316 6.77973C9.86034 7.59635 10.8342 8.11051 11.8905 8.20911C12.9467 8.30771 13.9989 7.98266 14.8155 7.30548C15.6322 6.62831 16.1463 5.65446 16.2449 4.59819C16.3435 3.54191 16.0185 2.48973 15.3413 1.67312C14.6641 0.856497 13.6903 0.342334 12.634 0.243736Z" fill="white"/>
</svg>
