<svg width="514" height="308" viewBox="0 0 514 308" fill="none" xmlns="http://www.w3.org/2000/svg">
<path d="M3.53103 184.524V84.4548C3.53103 80.9927 6.29409 78.1298 11.8202 75.866C17.4129 73.5358 23.971 72.3706 31.4945 72.3706C35.7556 72.3706 39.7504 72.9032 43.4789 73.9685C47.2739 74.9672 50.1701 76.2655 52.1675 77.8634C54.8973 81.3256 57.394 84.8543 59.6577 88.4496C61.9214 92.0449 67.0148 100.434 74.9378 113.617C75.6701 113.617 76.3359 113.384 76.9352 112.918C77.5344 112.452 77.834 111.753 77.834 110.82C77.834 109.822 77.0017 107.924 75.3372 105.128L64.5513 86.5521V81.0593C67.9469 78.2629 72.0748 76.0991 76.9352 74.5677C81.7955 73.0364 86.8222 72.2707 92.0155 72.2707C100.471 72.2707 107.296 73.8021 112.489 76.8647C118.547 80.5266 121.577 86.2525 121.577 94.0423V188.619C121.577 194.345 118.847 198.506 113.388 201.102C108.727 203.433 102.502 204.598 94.7119 204.598C90.3843 204.598 86.1565 204.132 82.0285 203.2C77.9671 202.268 74.7713 201.069 72.441 199.604C67.7139 193.546 63.02 186.755 58.3594 179.231L48.1727 162.253C46.2419 162.52 45.2765 163.552 45.2765 165.349C45.2765 166.481 46.2419 168.645 48.1727 171.841L60.6564 192.014V197.307C52.9332 202.301 44.2112 204.798 34.4906 204.798C24.8365 204.798 17.2465 203.033 11.7203 199.505C6.2608 195.976 3.53103 190.982 3.53103 184.524ZM215.654 72.3706C223.644 72.3706 230.568 74.5345 236.427 78.8621C242.286 83.1898 245.215 89.3484 245.215 97.338V152.865C245.215 169.777 240.055 182.826 229.736 192.014C219.416 201.136 205.134 205.696 186.892 205.696C168.715 205.696 154.567 201.202 144.447 192.214C134.127 183.226 128.967 170.11 128.967 152.865V81.6585C136.824 75.4 145.912 72.2707 156.232 72.2707C164.887 72.2707 171.745 74.5677 176.805 79.1617C181.865 83.6892 184.395 90.5802 184.395 99.8347V158.059C185.127 158.591 185.959 158.858 186.892 158.858C187.89 158.858 188.589 158.625 188.989 158.159C189.455 157.626 189.688 156.661 189.688 155.262V99.7349C189.688 95.5403 189.488 92.2114 189.089 89.7479C188.689 87.2845 187.89 84.821 186.692 82.3576C194.681 75.6996 204.335 72.3706 215.654 72.3706ZM215.654 67.6767C208.929 67.6767 202.738 68.7087 197.078 70.7727C191.419 72.7701 186.925 75.2002 183.596 78.0632C178.07 71.0723 168.915 67.5769 156.132 67.5769C155.466 67.5769 154.401 67.6435 152.936 67.7766C152.204 65.2466 151.837 62.4502 151.837 59.3876C151.837 52.9293 153.868 46.6708 157.929 40.6121H215.454C219.516 46.9372 221.546 53.1957 221.546 59.3876C221.546 62.0508 221.114 64.8471 220.248 67.7766C219.915 67.71 219.482 67.6767 218.95 67.6767C218.95 67.6767 217.851 67.6767 215.654 67.6767ZM308.433 131.993C308.699 132.192 309.465 132.292 310.73 132.292C311.995 132.292 312.96 131.793 313.626 130.794C314.292 129.796 314.625 128.164 314.625 125.901V122.305C314.625 119.909 314.325 118.211 313.726 117.212C313.193 116.147 312.261 115.614 310.93 115.614C309.665 115.614 308.799 115.747 308.333 116.014C308.4 116.347 308.433 116.912 308.433 117.711V131.993ZM359.966 154.763L377.243 172.44C376.045 182.826 372.749 190.816 367.356 196.409C362.029 202.001 354.639 204.798 345.185 204.798C338.061 204.798 331.869 203.1 326.609 199.704C319.885 195.443 314.858 188.652 311.529 179.331L307.933 169.544C305.137 169.477 301.608 169.111 297.347 168.445C296.815 168.978 296.548 169.71 296.548 170.642C296.548 172.44 299.245 173.505 304.638 173.838L310.33 188.219V196.708C302.674 202.101 292.853 204.798 280.869 204.798C272.28 204.798 265.422 203.033 260.296 199.505C255.169 195.976 252.606 190.849 252.606 184.125V89.2486C252.606 86.3191 255.302 83.4894 260.695 80.7597C266.088 77.9633 273.146 75.7329 281.868 74.0684C290.589 72.3373 299.311 71.4718 308.033 71.4718C328.007 71.4718 343.62 75.5664 354.872 83.7557C366.723 92.3445 372.649 104.429 372.649 120.008C372.649 128.93 370.119 136.587 365.059 142.978C360.065 149.303 353.74 153.698 346.084 156.161C346.084 158.292 347.349 159.357 349.879 159.357C352.475 159.357 355.838 157.826 359.966 154.763ZM444.056 137.386C444.588 137.918 445.421 138.185 446.552 138.185C447.684 138.185 448.65 137.952 449.449 137.486C447.718 127.365 446.552 121.373 445.953 119.509C445.221 117.578 444.122 116.613 442.658 116.613C441.992 116.613 441.193 116.813 440.261 117.212L444.056 137.386ZM424.282 167.347C423.616 168.279 423.283 169.144 423.283 169.943C423.283 171.874 425.08 173.505 428.676 174.837C432.338 176.102 436.765 176.901 441.958 177.234C442.824 186.821 443.756 192.281 444.755 193.612C443.49 196.076 439.994 198.572 434.268 201.102C428.543 203.566 422.084 204.798 414.894 204.798C405.373 204.798 397.217 202.767 390.426 198.706C383.635 194.578 380.239 189.285 380.239 182.826C380.239 181.095 380.405 179.564 380.738 178.232L402.011 83.1565C407.337 79.761 413.695 77.0978 421.086 75.167C428.476 73.2361 436.166 72.2707 444.156 72.2707C455.607 72.2707 465.394 74.2016 473.517 78.0632C482.772 82.4574 488.398 88.8158 490.395 97.1383L513.165 191.315C506.241 200.304 494.956 204.798 479.31 204.798C471.72 204.798 465.295 203.433 460.035 200.703C454.775 197.973 451.712 194.078 450.847 189.018L448.65 176.834C452.644 176.768 456.506 176.002 460.235 174.537C463.963 173.072 465.827 171.541 465.827 169.943C465.827 168.878 465.394 168.012 464.529 167.347C461.999 169.144 458.903 170.509 455.241 171.441C451.579 172.373 448.184 172.839 445.054 172.839C436.066 172.839 429.142 171.008 424.282 167.347Z" fill="#F5DF7A"/>
<path d="M9.782 192.083L134.979 181.412L265.529 206.311L284.567 302.353H5.33563L9.782 192.083Z" fill="#CE2F7D"/>
<path d="M12.4498 192.083L51.9109 184.445C116.247 171.993 182.772 177.524 244.168 200.43L251.726 203.249C334.861 234.265 426.879 231.211 507.775 194.751" stroke="#F5DF7A" stroke-width="12.4498" stroke-linecap="round"/>
</svg>
